<svg width="279" height="279" viewBox="0 0 279 279" fill="none" xmlns="http://www.w3.org/2000/svg">
<rect width="279" height="279" rx="72" fill="#E85748"/>
<path d="M139 105L139.5 110C139.5 112.413 137.083 114.077 134.829 113.217L81.7209 92.9469C77.0716 91.1724 74 86.7123 74 81.7358V60.5V58.4053C74 57.8073 74.1141 57.2147 74.3362 56.6594L74.4877 56.2809C74.8177 55.4558 75.439 54.7805 76.2339 54.3831C76.7377 54.1311 77.2933 54 77.8566 54H79.0742C80.0185 54 80.9567 54.1522 81.8527 54.4509L83.5 55L90.5 57.5L97.5 61L102.5 63.5L108.5 67L113.5 70L119 74L124 78L127 81L131 86L134.5 91.5L137 97L138.158 100.473C138.385 101.156 138.551 101.858 138.653 102.571L139 105Z" fill="url(#paint0_linear_12_548)"/>
<path d="M140.5 106L140 111C140 113.413 142.417 115.077 144.671 114.217L197.779 93.9469C202.428 92.1724 205.5 87.7123 205.5 82.7358V61.5V59.4053C205.5 58.8073 205.386 58.2147 205.164 57.6594L205.012 57.2809C204.682 56.4558 204.061 55.7805 203.266 55.3831C202.762 55.1311 202.207 55 201.643 55H200.426C199.481 55 198.543 55.1522 197.647 55.4509L196 56L189 58.5L182 62L177 64.5L171 68L166 71L160.5 75L155.5 79L152.5 82L148.5 87L145 92.5L142.5 98L141.342 101.473C141.115 102.156 140.949 102.858 140.847 103.571L140.5 106Z" fill="url(#paint1_linear_12_548)"/>
<path d="M140 110.017V210.947C140 211.997 139.023 212.774 138 212.538L136 212.076L61 187.139L59.5 186.677L58 186.215L56.5 185.753L55 185.292L54 184.83L53.5732 184.633C53.1934 184.457 52.8435 184.224 52.5362 183.94L52.5 183.906L52 183.444L51.5 182.983L51.4876 182.971C51.1648 182.673 50.8932 182.324 50.684 181.937L50.5 181.597L50 180.674L49.5 179.75L49 178.826L48.6429 178.167C48.5478 177.991 48.4659 177.808 48.3981 177.62L48.2413 177.186C48.0817 176.744 48.0013 176.277 48.0039 175.806L48.4966 85.2497C48.4988 84.835 48.6033 84.4273 48.8007 84.0626C48.9327 83.8188 49.1039 83.5985 49.3075 83.4104L50 82.7708L51 81.8472L52 80.9236L53 80.4618L53.9248 80.1771C54.3061 80.0597 54.7028 80 55.1018 80H55.3982C55.7972 80 56.1939 80.0597 56.5752 80.1771L57.5 80.4618L138.689 108.184C139.473 108.452 140 109.189 140 110.017Z" fill="white"/>
<path d="M140 106.858V196.958C140 198.012 140.968 198.8 142 198.587L144 198.174L219 175.861L220.5 175.448L222 175.035L223.5 174.622L225 174.208L226 173.795L226.444 173.612C226.812 173.459 227.156 173.253 227.464 172.998L227.5 172.969L228 172.556L228.5 172.142C228.831 171.869 229.114 171.542 229.336 171.174L229.5 170.903L230 170.076L230.5 169.25L231 168.424L231.333 167.873C231.444 167.689 231.54 167.497 231.621 167.298L231.705 167.089C231.9 166.606 231.998 166.09 231.995 165.569L231.504 84.7299C231.501 84.3386 231.393 83.9552 231.19 83.6203C231.064 83.412 230.904 83.2263 230.716 83.0712L230 82.4792L229 81.6528L228 80.8264L227 80.4132L226.021 80.1436C225.675 80.0483 225.318 80 224.959 80H224.541C224.182 80 223.825 80.0483 223.479 80.1436L222.5 80.4132L141.185 105.256C140.481 105.471 140 106.121 140 106.858Z" fill="white"/>
<path fill-rule="evenodd" clip-rule="evenodd" d="M132 201.354V111.535C132 110.782 132.498 110.12 133.221 109.912L221.674 84.4236L222.81 84.1285C223.138 84.0432 223.476 84 223.815 84H224.424C224.763 84 225.101 84.0432 225.43 84.1285L226.565 84.4236L227.652 84.8472L228.739 85.6944L229.826 86.5417L229.826 86.5417L230.619 87.1594C230.813 87.3113 230.981 87.4951 231.115 87.7032C231.338 88.0513 231.458 88.4557 231.461 88.8693L231.964 166.904C231.988 167.099 232 167.298 232 167.5V171.537C232 172.837 231.789 174.128 231.374 175.361L230.473 178.041L228.183 183.721L224.81 189.856C224.515 190.394 224.178 190.908 223.804 191.394L219.023 197.607L212.916 203.918L208.336 207.705L200.702 212.754L192.305 217.803L184.672 221.59L175.511 226.008L167.878 229.164L157.191 233.582L146.504 236.738L143.489 237.569C142.45 237.855 141.378 238 140.3 238H137.712C136.965 238 136.225 237.853 135.534 237.568C134.241 237.033 133.185 236.032 132.576 234.773C132.199 233.993 132 233.132 132 232.265V229.795V203.785V201.354Z" fill="#FFE8E5"/>
<path fill-rule="evenodd" clip-rule="evenodd" d="M140 200.958V111.632C140 110.902 139.522 110.258 138.824 110.046L57.5 85.4097L56.5175 85.1414C56.174 85.0475 55.8196 85 55.4635 85H55.0365C54.6804 85 54.326 85.0475 53.9825 85.1414L53 85.4097L52 85.8194L51 86.6389L50 87.4583L49.9999 87.4584L49.2818 88.0469C49.0953 88.1997 48.9359 88.3829 48.8103 88.5887C48.6073 88.9214 48.4987 89.3031 48.4963 89.6929L48.0049 169.837C48.0017 170.362 48.1018 170.882 48.2996 171.369L48.378 171.561C48.4592 171.761 48.5564 171.954 48.6686 172.137L49 172.681L49.0705 172.796C48.4109 173.521 48 174.487 48 175.574L48.7023 181.148L49.1703 183.748C49.326 184.613 49.5763 185.458 49.9167 186.269L51.5115 190.066L54.5576 195.384C54.8673 195.925 55.2187 196.441 55.6086 196.927L59.9389 202.328L65.5573 207.902L69.771 211.246L76.7939 215.705L84.5191 220.164L91.542 223.508L99.9695 227.41L106.992 230.197L116.824 234.098L126.656 236.885L129.362 237.601C130.363 237.866 131.395 238 132.431 238H134.775C135.443 238 136.105 237.873 136.727 237.627L136.811 237.593C137.961 237.137 138.903 236.275 139.459 235.171C139.815 234.466 140 233.687 140 232.897V230.754V206.772C140 205.241 139.71 203.762 139.175 202.397C139.663 202.111 140 201.581 140 200.958Z" fill="#F5F5F5"/>
<defs>
<linearGradient id="paint0_linear_12_548" x1="106.75" y1="54" x2="106.75" y2="115" gradientUnits="userSpaceOnUse">
<stop stop-color="#FEF9F7"/>
<stop offset="1" stop-color="#F3E1DF"/>
</linearGradient>
<linearGradient id="paint1_linear_12_548" x1="172.75" y1="55" x2="172.75" y2="116" gradientUnits="userSpaceOnUse">
<stop stop-color="#FEF9F7"/>
<stop offset="1" stop-color="#F3E1DF"/>
</linearGradient>
</defs>
</svg>
