<svg width="24" height="24" viewBox="0 0 24 24" fill="none" xmlns="http://www.w3.org/2000/svg">
<g id="Google Logo">
<rect width="24" height="24" fill="white"/>
<g id="logo googleg 48dp">
<path id="Shape" fill-rule="evenodd" clip-rule="evenodd" d="M20.18 12.1818C20.18 11.6145 20.1291 11.069 20.0345 10.5454H12.5V13.64H16.8055C16.62 14.64 16.0564 15.4872 15.2091 16.0545V18.0618H17.7945C19.3073 16.669 20.18 14.6181 20.18 12.1818Z" fill="#4285F4"/>
<path id="Shape_2" fill-rule="evenodd" clip-rule="evenodd" d="M12.4997 19.9999C14.6597 19.9999 16.4706 19.2835 17.7942 18.0617L15.2088 16.0544C14.4924 16.5344 13.576 16.8181 12.4997 16.8181C10.416 16.8181 8.6524 15.4108 8.02331 13.5199H5.35059V15.5926C6.66695 18.2072 9.3724 19.9999 12.4997 19.9999Z" fill="#34A853"/>
<path id="Shape_3" fill-rule="evenodd" clip-rule="evenodd" d="M8.02364 13.5201C7.86364 13.0401 7.77273 12.5273 7.77273 12.0001C7.77273 11.4728 7.86364 10.9601 8.02364 10.4801V8.40735H5.35091C4.80909 9.48735 4.5 10.7092 4.5 12.0001C4.5 13.291 4.80909 14.5128 5.35091 15.5928L8.02364 13.5201Z" fill="#FBBC05"/>
<path id="Shape_4" fill-rule="evenodd" clip-rule="evenodd" d="M12.4997 7.18182C13.6742 7.18182 14.7288 7.58545 15.5579 8.37818L17.8524 6.08364C16.4669 4.79273 14.656 4 12.4997 4C9.3724 4 6.66695 5.79273 5.35059 8.40727L8.02331 10.48C8.6524 8.58909 10.416 7.18182 12.4997 7.18182Z" fill="#EA4335"/>
</g>
</g>
</svg>
