<svg width="24" height="24" viewBox="0 0 24 24" fill="none" xmlns="http://www.w3.org/2000/svg">
<g id="icons8-user-male 1">
<path id="Vector" d="M19.971 14.583C19.985 14.39 20 14.197 20 14C20 9.582 16.418 6 12 6C7.582 6 4 9.582 4 14C4 14.197 4.015 14.39 4.029 14.583C3.433 14.781 3 15.337 3 16C3 16.828 3.672 17.5 4.5 17.5C4.603 17.5 4.703 17.49 4.8 17.47C6.093 20.148 8.827 22 12 22C15.173 22 17.907 20.148 19.2 17.47C19.297 17.49 19.397 17.5 19.5 17.5C20.328 17.5 21 16.828 21 16C21 15.337 20.567 14.781 19.971 14.583Z" fill="white" fill-opacity="0.8"/>
<path id="Vector_2" d="M9 15C9.55228 15 10 14.5523 10 14C10 13.4477 9.55228 13 9 13C8.44772 13 8 13.4477 8 14C8 14.5523 8.44772 15 9 15Z" fill="#00255C"/>
<path id="Vector_3" d="M15 15C15.5523 15 16 14.5523 16 14C16 13.4477 15.5523 13 15 13C14.4477 13 14 13.4477 14 14C14 14.5523 14.4477 15 15 15Z" fill="#00255C"/>
<path id="Vector_4" d="M15 4C15 2.895 14.105 2 13 2H12C7.029 2 3 6.029 3 11V14C3 14.552 3.448 15 4 15C4.552 15 5 14.707 5 14C5 12.36 6.343 11 8 11H16C17.657 11 19 12.343 19 14C19 14.584 19.448 15 20 15C20.552 15 21 14.552 21 14V11C21 4 15 4 15 4Z" fill="#00255C"/>
</g>
</svg>
