<svg width="24" height="24" viewBox="0 0 24 24" fill="none" xmlns="http://www.w3.org/2000/svg">
<g id="icons8-news 1">
<path id="Vector" opacity="0.35" d="M18 19V6C18 4.343 16.657 3 15 3H5C3.343 3 2 4.343 2 6V18C2 19.657 3.343 21 5 21H20C18.895 21 18 20.105 18 19Z" fill="black"/>
<path id="Vector_2" d="M14 14H6C5.448 14 5 13.552 5 13C5 12.448 5.448 12 6 12H14C14.552 12 15 12.448 15 13C15 13.552 14.552 14 14 14Z" fill="black"/>
<path id="Vector_3" d="M14 18H6C5.448 18 5 17.552 5 17C5 16.448 5.448 16 6 16H14C14.552 16 15 16.448 15 17C15 17.552 14.552 18 14 18Z" fill="black"/>
<path id="Vector_4" d="M20 7H18V19C18 20.105 18.895 21 20 21C21.105 21 22 20.105 22 19V9C22 7.895 21.105 7 20 7Z" fill="black"/>
<path id="Vector_5" d="M13.5 7C13.114 7 6.886 7 6.5 7C5.672 7 5 7.672 5 8.5C5 9.328 5.672 10 6.5 10C6.886 10 13.114 10 13.5 10C14.328 10 15 9.328 15 8.5C15 7.672 14.328 7 13.5 7Z" fill="black"/>
</g>
</svg>
