<svg width="360" height="399" viewBox="0 0 360 399" fill="none" xmlns="http://www.w3.org/2000/svg">
<g clip-path="url(#clip0_299_207)">
<rect width="599" height="399" transform="translate(-119)" fill="white"/>
<path fill-rule="evenodd" clip-rule="evenodd" d="M-1 399H362V0H-1V399Z" fill="white"/>
<mask id="mask0_299_207" style="mask-type:luminance" maskUnits="userSpaceOnUse" x="-119" y="0" width="852" height="568">
<path fill-rule="evenodd" clip-rule="evenodd" d="M-119 0H733V568H-119V0Z" fill="white"/>
</mask>
<g mask="url(#mask0_299_207)">
<path fill-rule="evenodd" clip-rule="evenodd" d="M-158.546 393.673C-154.294 382.682 -140.799 378.653 -129.024 378.181C-96.0244 376.865 -63.6893 392.503 -40.6444 416.159C-17.6007 439.815 -3.18596 470.834 4.9444 502.844C8.85678 518.251 11.4173 534.189 10.1189 550.033C8.81816 565.877 3.4176 581.706 -7.07675 593.645C-26.8988 616.198 -61.9444 620.681 -90.1615 610.416C-118.379 600.151 -140.575 577.746 -158.103 553.368C-176.618 527.621 -191.219 498.371 -195.672 466.973C-200.125 435.574 -193.575 401.838 -173.721 377.109" fill="white"/>
<path fill-rule="evenodd" clip-rule="evenodd" d="M-144.903 157.659C-148.927 142.436 -152.988 126.778 -151.183 111.135C-149.378 95.4932 -140.34 79.6472 -125.473 74.4579C-112.507 69.9321 -97.7965 74.3909 -86.6626 82.4315C-75.5275 90.4721 -67.1984 101.705 -58.7045 112.497C4.22083 192.461 85.0018 256.834 170.637 311.792C256.273 366.751 347.191 412.877 436.514 461.615C469.241 479.471 502.246 498.042 528.485 524.526C546.529 542.738 561.179 572.141 545.955 592.768C533.338 609.866 508.236 609.846 487.055 608.153C417.348 602.583 347.64 597.012 277.934 591.442C254.49 589.569 230.284 587.48 209.538 576.398C180.687 560.987 163.338 531.02 144.262 504.449C113.628 461.777 75.1129 424.783 31.2451 395.888C8.36269 380.817 -16.6361 367.321 -32.8923 345.262C-49.1473 323.203 -53.3005 289.02 -33.5239 270.052C-96.9707 264.765 -150.3 203.264 -146.551 139.71" fill="#E85748" fill-opacity="0.2"/>
<path fill-rule="evenodd" clip-rule="evenodd" d="M-173.42 265.171C-183.887 264.155 -193.943 271.117 -199.18 280.237C-204.416 289.354 -205.62 300.235 -205.573 310.751C-205.358 358.812 -181.624 403.711 -153.41 442.619C-125.196 481.527 -91.8423 516.863 -67.7114 558.427C-47.7291 592.845 -32.0773 633.541 2.93079 652.47C40.3495 672.702 90.6868 658.534 117.369 625.405C144.053 592.274 148.555 544.72 135.205 504.331C121.856 463.943 92.6362 430.274 58.6595 404.681" fill="#E85748" fill-opacity="0.2"/>
<path fill-rule="evenodd" clip-rule="evenodd" d="M205.351 76.9072C231.313 116.096 278.551 140.188 325.516 138.194C379.237 135.913 427.899 102.517 481.611 100.011C521.936 98.1299 562.749 114.986 589.995 144.773C615.559 172.722 628.451 209.646 641.17 245.324C653.889 281.002 667.841 317.75 694.805 344.351C721.771 370.952 765.535 384.411 798.418 365.614C825.824 349.947 838.316 317.27 844.896 286.397C855.538 236.448 855.966 183.938 842.639 134.639C829.311 85.3385 801.828 39.426 762.353 7.02724C724.767 -23.8208 677.807 -41.5345 630.086 -50.8554C582.365 -60.1774 533.499 -61.5735 484.895 -62.9413C467.761 -63.4229 450.627 -63.9057 433.491 -64.3874C416.421 -64.8679 399.349 -65.3485 382.277 -65.829C365.206 -66.3084 348.135 -66.7889 331.063 -67.2694C313.928 -67.7511 296.794 -68.2339 279.66 -68.7156C263.55 -69.1688 247.25 -70.3968 231.14 -69.9197C221.966 -69.6482 212.464 -68.0135 204.602 -63.0117C197.778 -58.6699 193.01 -52.0516 189.957 -44.6471C186.177 -35.483 184.679 -25.468 183.76 -15.6587C182.442 -1.59045 182.692 12.4903 185.238 26.4142C187.893 40.9346 192.815 55.0573 199.949 67.9884C200.789 69.5095 201.659 71.0147 202.558 72.5006C203.137 73.456 205.351 75.8507 205.351 76.9072Z" fill="white"/>
<path fill-rule="evenodd" clip-rule="evenodd" d="M-182.986 -45.5059C-131.146 -44.1337 -87.593 -5.67665 -57.3208 36.4292C-27.0476 78.5339 -4.64453 126.691 31.7075 163.675C94.2045 227.259 186.868 247.822 273.139 270.32C359.409 292.82 451.645 325.389 498.826 401.038C523.497 440.592 534.08 489.707 567.954 521.734C588.954 541.587 616.6 552.505 643.295 563.574C669.99 574.642 697.327 586.936 716.483 608.573C735.639 630.212 744.335 663.794 729.331 688.493C673.502 702.399 610.687 683.027 572.387 640.093C537.94 601.478 522.4 546.318 480.2 516.371C439.894 487.767 384.89 489.321 341.896 464.942C290.926 436.039 265.116 375.854 216.855 342.626C165.249 307.094 94.6487 306.888 45.2452 268.357C-8.23772 226.644 -24.1531 150.01 -76.5488 106.942C-96.5685 90.4846 -120.695 80.0164 -143.356 67.4386C-166.016 54.8631 -188.253 39.1249 -200.351 16.205C-212.45 -6.71381 -211.374 -38.2855 -191.861 -55.3414" fill="white"/>
<path fill-rule="evenodd" clip-rule="evenodd" d="M-69.4715 -94.2459C-24.2235 21.2978 77.5223 113.147 197.077 146.376C275.852 168.27 362.385 166.596 433.806 206.391C493.08 239.419 534.746 297.799 561.614 360.108C579.216 400.932 594.317 447.781 633.068 469.573C683.856 498.133 754.794 470.838 801.692 505.417C814.652 514.974 824.287 528.43 837 538.313C849.714 548.197 867.966 554.072 881.8 545.831C893.126 539.083 897.976 524.269 895.483 511.324C892.99 498.378 884.332 487.308 874.024 479.091C814.862 431.929 718.321 473.42 656.622 429.63C629.338 410.262 614.693 377.654 605.703 345.424C596.713 313.193 592.033 279.559 578.671 248.883C554.868 194.23 502.757 152.853 444.13 142.056C383.31 130.854 320.072 141.268 260.375 125.113C207.867 110.903 165.847 80.5413 127.278 42.1786C91.5849 6.67521 55.8918 -28.8282 20.1975 -64.3327C3.47105 -80.9695 -13.8064 -97.9867 -35.4858 -107.291C-57.1652 -116.594 -84.5724 -116.516 -102.204 -100.843" fill="white"/>
<path fill-rule="evenodd" clip-rule="evenodd" d="M-159.606 -111.064C-135.182 -14.3475 -80.4006 74.4684 -4.935 139.703C70.5306 204.937 166.337 246.293 265.57 256.468C337.736 263.867 416.097 261.01 472.43 306.718C520.781 345.95 538.092 408.414 569.221 462.34C626.129 560.924 745.249 619.643 858.1 604.74C772.072 585.725 693.395 535.129 640.405 464.742C600.304 411.475 575.246 348.618 541.331 291.214C507.416 233.809 460.721 179.144 397.036 159.401C347.267 143.973 293.772 151.77 241.739 154.564C189.708 157.358 133.113 153.412 93.1813 119.937C43.4086 78.2127 35.0727 4.43515 -4.88841 -46.7644C-55.2734 -111.319 -144.384 -127.985 -225.37 -140.106" fill="#E85748" fill-opacity="0.2"/>
<path fill-rule="evenodd" clip-rule="evenodd" d="M18.8354 -114.722C37.108 -42.7704 79.5456 22.8211 137.688 68.9779C195.831 115.135 269.339 141.586 343.561 143.06C390.002 143.981 437.202 135.508 482.502 145.776C524.734 155.349 562.947 181.61 587.021 217.606C621.136 268.617 628.933 338.805 678.308 375.249C708.291 397.381 748.653 401.879 785.139 394.301C821.625 386.723 854.912 368.249 886.037 347.759C857.132 379.252 805.243 380.495 767.651 360.14C730.062 339.787 704.54 302.654 685.21 264.527C665.881 226.399 651.155 185.758 627.619 150.074C604.082 114.388 569.374 83.1109 527.138 76.5243C460.26 66.0958 399.662 118.568 332.418 126.292C275.237 132.86 211.277 97.4915 200.944 40.8687C196.666 17.4273 201.469 -7.23182 195.171 -30.2131C186.381 -62.2903 156.951 -85.3977 125.323 -95.6899C93.6944 -105.981 59.7246 -105.586 26.4671 -105.087" fill="white"/>
<path fill-rule="evenodd" clip-rule="evenodd" d="M-230.67 14.3032C-208.01 51.7821 -166.237 72.4425 -127.136 92.1726C-88.0338 111.901 -46.9287 135.167 -28.1938 174.754C-12.4943 207.929 -15.4797 246.572 -8.215 282.549C1.68411 331.577 31.8608 376.189 73.6838 403.623C145.342 450.628 245.416 447.469 306.497 507.579C353.961 554.291 363.183 634.919 327.491 691.141C329.889 665.815 314.022 641.415 292.948 627.164C271.875 612.914 246.311 607.102 221.201 603.015C196.093 598.925 170.473 596.204 146.716 587.108C98.8484 568.78 62.3692 523.505 54.6399 472.836C52.4179 458.267 52.3315 443.081 46.5493 429.525C25.5958 380.395 -55.7827 378.251 -71.2925 327.142C-83.5307 286.816 -44.3932 247.341 -46.5391 205.255C-48.1738 173.21 -73.5645 147.187 -101.102 130.719C-128.639 114.251 -159.779 103.969 -185.768 85.1544C-211.759 66.3411 -232.653 34.9466 -225.904 3.57935" fill="white"/>
<path fill-rule="evenodd" clip-rule="evenodd" d="M207.728 11.3464C211.403 44.4517 226.876 77.4855 254.479 96.1272C277.61 111.75 306.965 115.899 334.752 113.259C373.036 109.624 409.057 94.1938 444.514 79.3042C479.97 64.4135 516.411 49.6807 554.81 47.5712C593.208 45.4616 634.538 58.1973 657.42 89.1045C692.328 136.254 674.715 208.398 710.667 254.755C737.797 289.735 790.232 298.468 831.378 282.142C872.525 265.814 902.799 228.878 920.552 188.327C940.28 143.267 946.161 90.3995 927.588 44.8527C903.348 -14.593 840.573 -52.2526 776.845 -59.9978C713.119 -67.743 648.794 -49.6954 590.11 -23.6697C549.778 -5.78333 511.076 15.9597 469.463 30.6255C427.851 45.2912 382.027 52.5832 339.584 40.5348C297.141 28.4852 259.27 -6.16389 253.032 -49.8408C251.459 -60.8589 251.816 -72.7267 246.684 -82.8962C244.087 -88.0388 240.225 -91.8842 234.709 -93.7711C230.917 -95.0673 225.667 -95.9636 221.994 -93.7949C215.801 -90.137 216.689 -79.111 215.865 -73.0391C215.051 -67.0387 213.373 -61.1917 212.136 -55.2709C210.726 -48.5356 209.533 -41.7548 208.628 -34.9331C206.817 -21.3056 206.161 -7.49301 207.242 6.22418C207.377 7.93501 207.54 9.64241 207.728 11.3464Z" fill="#E85748" fill-opacity="0.2"/>
<path fill-rule="evenodd" clip-rule="evenodd" d="M377.274 342.899C411.127 358.894 444.691 378.517 466.827 408.713C486.719 435.844 496.009 469.696 516.506 496.372C547.447 536.637 598.601 554.528 640.52 583.185C650.614 590.085 660.535 598.019 666.157 608.877C671.776 619.732 672.059 634.173 663.896 643.274C657.432 650.48 646.885 653.016 637.3 651.66C627.717 650.303 618.94 645.551 610.953 640.081C577.699 617.31 555.549 582.082 533.026 548.657C510.505 515.233 485.194 481.366 448.863 463.915C410.192 445.34 361.205 446.424 330.632 416.328C313.973 399.929 305.67 376.611 289.508 359.72C262.515 331.512 219.246 326.325 187.459 303.658C181.116 299.136 174.64 291.605 177.712 284.445C181.111 276.524 194.381 275.155 202.959 275.999C221.918 277.864 229.271 278.403 243.051 281.437C254.417 283.94 292.978 302.191 301.006 306.665C312.595 313.125 324.559 318.873 336.614 324.402C348.648 329.919 360.78 335.218 372.787 340.797C374.284 341.493 375.78 342.194 377.274 342.899Z" fill="#E85748" fill-opacity="0.2"/>
<path fill-rule="evenodd" clip-rule="evenodd" d="M220.822 16.0903C218.506 8.38938 216.164 0.366947 217.425 -7.57483C218.685 -15.5166 224.691 -23.3209 232.717 -23.8378C241.63 -24.4126 248.591 -16.347 252.91 -8.5302C260.067 4.42815 264.411 18.953 273.03 30.9867C287.598 51.329 312.831 61.9211 337.736 64.3351C362.639 66.7491 387.625 61.9961 412.157 57.0761C416.096 56.2865 421.778 56.691 422.12 60.6931C422.327 63.0969 420.188 64.9849 418.227 66.389C384.772 90.3291 341.406 99.9328 300.972 92.3545C275.711 87.6197 251.068 75.9087 234.665 56.123C218.261 36.3384 211.383 7.83501 220.917 -16.0323" fill="white"/>
<path fill-rule="evenodd" clip-rule="evenodd" d="M244.684 239.689C295.749 246.405 348.371 237.932 398.669 249.012C447.168 259.698 491.317 289.005 519.992 329.553C502.059 296.01 477.995 265.509 448.118 241.969C418.243 218.43 382.444 202.017 344.754 196.904C305.03 191.515 264.826 198.606 224.8 200.828C207.472 201.79 190.009 201.69 172.782 199.406C155.767 197.149 138.905 192.693 123.6 184.793C121.764 183.845 116.722 180.019 114.468 182.197C112.944 183.669 119.66 187.72 120.982 188.724C127.824 193.915 134.926 198.766 142.247 203.257C156.893 212.238 172.421 219.78 188.532 225.745C204.642 231.709 221.338 236.096 238.307 238.768C240.429 239.102 242.555 239.409 244.684 239.689Z" fill="white"/>
<path fill-rule="evenodd" clip-rule="evenodd" d="M-15.7228 97.9017C-8.14797 103.846 2.07036 109.443 10.5983 104.971C16.5544 101.847 19.3535 94.5641 19.0888 87.8447C18.8252 81.1252 16.0693 74.7875 13.3576 68.6338C4.20262 47.8563 -5.00125 26.988 -17.161 7.81348C-29.3196 -11.3622 -44.6488 -28.927 -63.9415 -40.8993C-69.7771 -44.5198 -76.8862 -48.038 -83.901 -45.9784C-88.7835 -44.5459 -92.6198 -41.1822 -91.6326 -35.868C-90.6034 -30.322 -89.1845 -24.7715 -88.0394 -19.2335C-86.7228 -12.8822 -85.0915 -6.59328 -83.158 -0.40094C-79.3195 11.894 -74.2927 23.8174 -68.1981 35.1638C-62.0773 46.5556 -54.8785 57.3681 -46.7129 67.3955C-38.5507 77.4207 -29.4218 86.6598 -19.4568 94.8936C-18.2254 95.9126 -16.9804 96.9145 -15.7228 97.9017Z" fill="white"/>
</g>
<path fill-rule="evenodd" clip-rule="evenodd" d="M276.716 312.681C278.357 314.07 280.065 315.791 280.069 317.939C280.072 319.888 278.583 321.596 276.814 322.414C275.045 323.229 273.037 323.325 271.089 323.34C253.843 323.468 236.595 318.269 222.295 308.63C218.415 306.013 214.476 301.809 217.259 296.891C219.154 293.545 223.661 293.842 226.969 293.943C238.512 294.296 249.867 296.965 260.273 302.009C266.168 304.866 271.716 308.447 276.716 312.681Z" fill="white"/>
<path fill-rule="evenodd" clip-rule="evenodd" d="M432.997 401.115C439.621 407.465 446.371 416.451 442.986 424.98C439.261 434.36 426.486 435.459 416.508 433.944C373.139 427.356 333.508 399.539 312.573 360.991C310.056 356.356 307.445 350.551 310.311 345.472C312.264 342.013 314.93 340.466 318.831 341.076C328.974 342.662 339.159 346.015 348.813 349.422C358.811 352.952 368.569 357.158 378 361.998C387.433 366.839 396.541 372.314 405.237 378.378C413.975 384.473 422.301 391.162 430.116 398.401C431.085 399.297 432.045 400.201 432.997 401.115Z" fill="white"/>
<path fill-rule="evenodd" clip-rule="evenodd" d="M192.978 392.332C198.798 393.965 202.325 399.53 200.858 404.767C199.39 410.002 193.483 412.923 187.664 411.292C181.845 409.661 178.317 404.094 179.785 398.859C181.253 393.623 187.16 390.701 192.978 392.332Z" fill="white"/>
<path fill-rule="evenodd" clip-rule="evenodd" d="M377.791 273.723C421.025 282.362 463.517 299.819 495.419 330.251C532.461 365.586 552.089 414.819 578.048 458.942C613.717 519.563 662.886 572.187 720.948 611.883C652.034 582.186 579.539 549.649 536.557 488.137C516.049 458.788 503.573 424.443 483.115 395.059C457.218 357.862 419.482 330.162 378.947 309.883C364.562 302.685 349.761 296.341 334.748 290.575C319.768 284.82 241.941 264.622 242.516 263.595C243.086 262.58 271.587 264.548 272.904 264.571C289.567 264.853 306.232 265.373 322.855 266.579C339.376 267.779 355.862 269.657 372.16 272.645C374.04 272.989 375.917 273.348 377.791 273.723Z" fill="#E85748" fill-opacity="0.2"/>
<path fill-rule="evenodd" clip-rule="evenodd" d="M122.529 28.258C116.261 20.2572 110.438 11.4373 108.79 1.40868C106.341 -13.4979 114.552 -29.5348 128.077 -36.2622C141.601 -42.9907 159.345 -39.8645 169.755 -28.9191C179.091 -19.1041 182.039 -5.01994 184.597 8.28148C186.097 16.0767 187.596 23.8697 189.095 31.6638C190.912 41.1142 192.551 51.6199 187.427 59.765C184.441 64.5078 179.351 67.2546 173.943 68.2225C169.903 68.9439 165.726 69.1983 162.053 67.082C158.111 64.8111 154.818 61.2089 151.374 58.2802C146.371 54.0248 141.569 49.5319 136.991 44.8198C131.882 39.5601 127.051 34.0301 122.529 28.258Z" fill="#E85748" fill-opacity="0.2"/>
<path fill-rule="evenodd" clip-rule="evenodd" d="M-23.3488 424.562C8.61594 454.654 28.5936 499.429 21.8435 542.808C21.2562 546.577 20.4224 550.449 18.1674 553.525C15.9125 556.601 11.8842 558.677 8.23197 557.578C4.26961 556.388 2.17142 552.153 0.710526 548.281C-10.9267 517.412 -11.2288 481.942 -29.7161 454.62C-39.2994 440.454 -53.0177 429.723 -65.8114 418.374C-78.6061 407.025 -91.0476 394.266 -96.7015 378.124C-98.0204 374.361 -98.9042 370.037 -97.0377 366.513C-95.7302 364.047 -92.4494 362.459 -89.7037 363.156C-87.4715 363.724 -86.7297 366.851 -85.4789 368.547C-81.4882 373.954 -76.951 378.938 -72.1218 383.603C-62.3375 393.059 -51.4171 401.225 -40.7932 409.694C-34.819 414.456 -28.9152 419.32 -23.3488 424.562Z" fill="white"/>
<path fill-rule="evenodd" clip-rule="evenodd" d="M145.545 395.547C149.996 397.311 155.177 398.61 159.433 396.417C163.352 394.399 165.428 389.737 165.276 385.33C165.121 380.926 163.065 376.781 160.451 373.232C151.367 360.905 135.696 354.848 120.419 353.791C115.917 353.479 110.406 353.841 108.041 358.388C106.114 362.089 109.78 366.016 111.782 368.84C117.17 376.442 123.903 383.044 131.649 388.23C136.007 391.149 140.67 393.613 145.545 395.547Z" fill="white"/>
<path fill-rule="evenodd" clip-rule="evenodd" d="M117.929 111.518C122.391 113.306 127.05 115.237 130.091 118.959C133.132 122.682 133.836 128.784 130.292 132.031C127.428 134.653 122.996 134.522 119.233 133.567C114.142 132.279 109.365 129.767 105.417 126.305C101.294 122.69 97.9646 116.706 100.593 111.894C102.576 108.265 107.326 106.911 111.395 107.646C115.463 108.381 119.019 110.754 122.443 113.072" fill="white"/>
<path fill-rule="evenodd" clip-rule="evenodd" d="M305.003 -13.9162C324.705 15.6187 364.931 29.6142 398.71 18.687C411.071 14.6895 423.75 5.71393 424.621 -7.2467C425.478 -20.0199 414.343 -30.6119 402.617 -35.7535C378.276 -46.4273 350.285 -41.9276 324.124 -37.2371" fill="#E85748" fill-opacity="0.2"/>
<path fill-rule="evenodd" clip-rule="evenodd" d="M93.9103 167.706C103.293 177.464 112.101 185.687 124.465 191.587C136.591 197.372 149.36 201.285 162.526 203.87C177.481 206.805 192.654 208.366 207.83 209.609C223.462 210.889 239.408 213.516 255.081 212.801C256.916 212.718 258.054 209.926 256.103 209.031C243.014 203.03 228.427 201.881 214.305 200.077C199.223 198.15 184.053 196.626 169.084 193.923C156.683 191.685 144.336 188.616 132.441 184.437C120.07 180.09 105.76 174.417 95.4928 166.125C94.3942 165.238 92.8902 166.645 93.9103 167.706Z" fill="white"/>
<path fill-rule="evenodd" clip-rule="evenodd" d="M53.1698 135.926C53.6685 136.573 54.2979 137.223 54.6853 137.945C55.0704 138.664 56.0632 138.802 56.6801 138.325C57.3117 137.838 57.4026 136.873 56.8175 136.3C56.4018 135.891 55.919 135.106 55.5157 134.555C55.0965 133.983 54.3183 133.641 53.6572 134.067C53.1028 134.424 52.7075 135.322 53.1698 135.926Z" fill="white"/>
<path fill-rule="evenodd" clip-rule="evenodd" d="M64.6208 145.557C65.0184 146.858 65.6182 148.037 66.594 148.998C66.9382 149.337 67.3029 149.649 67.6823 149.947C68.699 150.75 69.6521 151.082 70.9517 151.235C72.3717 151.403 73.8042 150.174 74.3097 148.976C74.8959 147.587 74.5665 146.066 73.5509 144.963C72.8909 144.248 72.2445 143.972 71.3845 143.587C72.1809 143.943 70.9426 143.345 70.8063 143.277C70.4542 143.061 70.0793 142.89 69.6828 142.761C69.3318 142.613 69.3125 142.607 69.626 142.743C69.1046 142.527 68.5854 142.322 68.0617 142.116C66.0522 141.323 64.0437 143.664 64.6208 145.557Z" fill="white"/>
<path fill-rule="evenodd" clip-rule="evenodd" d="M79.7512 155.496C79.7512 155.542 79.7512 155.589 79.7523 155.637C79.8682 155.205 79.9852 154.774 80.101 154.343C79.7546 154.858 79.6444 155.448 79.641 156.057C79.7818 155.537 79.9227 155.016 80.0636 154.496C78.8878 156.517 79.7137 159.259 81.7744 160.358C83.233 161.137 85.2573 161.039 86.4331 159.757C87.6236 158.46 87.8679 156.661 87.0352 155.099C85.9355 153.037 83.191 152.213 81.1723 153.387C81.6926 153.246 82.2129 153.106 82.7343 152.966C82.1231 152.968 81.5347 153.079 81.0201 153.425C81.4517 153.308 81.8823 153.192 82.3117 153.075C82.2651 153.074 82.2185 153.074 82.172 153.074C80.8701 153.064 79.7409 154.192 79.7512 155.496Z" fill="white"/>
<path fill-rule="evenodd" clip-rule="evenodd" d="M188.324 84.048C188.357 84.0764 188.39 84.1048 188.424 84.1344C188.718 84.3616 189.013 84.5899 189.308 84.8171C189.657 84.9637 190.003 85.1102 190.351 85.2579C190.738 85.3101 191.126 85.3613 191.512 85.4135C192.114 85.4362 192.675 85.3113 193.195 85.0375C193.566 84.9341 193.886 84.7467 194.159 84.4752C194.487 84.2821 194.748 84.0208 194.943 83.6925C195.213 83.4198 195.4 83.0995 195.504 82.728C195.778 82.2077 195.904 81.6465 195.88 81.0456C195.875 81.0047 195.871 80.9638 195.865 80.924C195.863 80.1254 195.663 79.3825 195.263 78.6941C194.87 78.0295 194.342 77.5013 193.678 77.1082C192.989 76.7095 192.246 76.5073 191.448 76.505C190.84 76.4811 190.272 76.6095 189.747 76.8856C189.198 77.0639 188.724 77.3684 188.324 77.8C187.776 78.351 187.397 78.9997 187.188 79.7483C186.977 80.5321 186.977 81.3148 187.188 82.0975C187.397 82.8462 187.776 83.4959 188.324 84.048Z" fill="#E85748" fill-opacity="0.2"/>
<path fill-rule="evenodd" clip-rule="evenodd" d="M206.097 96.2168C206.592 96.235 207.055 96.1316 207.483 95.9067C207.929 95.7613 208.315 95.5136 208.641 95.1637C208.993 94.8377 209.24 94.4515 209.386 94.005C209.611 93.5756 209.714 93.1144 209.695 92.6191C209.653 92.2999 209.61 91.9807 209.566 91.6626C209.396 91.0526 209.087 90.5232 208.641 90.0733C208.399 89.8859 208.157 89.6984 207.914 89.511C207.352 89.1861 206.747 89.0225 206.097 89.0191C205.602 89.0009 205.138 89.1054 204.711 89.3304C204.265 89.4746 203.879 89.7234 203.552 90.0733C203.201 90.3994 202.954 90.7856 202.808 91.232C202.582 91.6614 202.48 92.1227 202.498 92.6191C202.541 92.9372 202.583 93.2564 202.628 93.5745C202.798 94.1845 203.106 94.7139 203.552 95.1637C203.796 95.3512 204.039 95.5386 204.281 95.7261C204.842 96.051 205.447 96.2157 206.097 96.2168Z" fill="#E85748" fill-opacity="0.2"/>
<path fill-rule="evenodd" clip-rule="evenodd" d="M216.955 101.874C217.231 101.886 217.49 101.828 217.727 101.702C217.976 101.62 218.192 101.482 218.374 101.287C218.569 101.105 218.708 100.89 218.788 100.642C218.913 100.402 218.971 100.144 218.96 99.868C218.937 99.6908 218.912 99.5136 218.89 99.3352C218.794 98.9956 218.623 98.7002 218.374 98.4503C218.239 98.3458 218.103 98.2413 217.967 98.1367C217.655 97.955 217.317 97.8641 216.955 97.863C216.68 97.8527 216.421 97.9107 216.182 98.0356C215.934 98.1163 215.719 98.2538 215.537 98.4503C215.342 98.6309 215.203 98.8467 215.123 99.0967C214.996 99.3352 214.939 99.592 214.949 99.868C214.974 100.046 214.998 100.225 215.021 100.402C215.117 100.742 215.288 101.037 215.537 101.287C215.672 101.391 215.808 101.496 215.943 101.6C216.256 101.782 216.593 101.873 216.955 101.874Z" fill="#E85748" fill-opacity="0.2"/>
<path fill-rule="evenodd" clip-rule="evenodd" d="M-1.89885 365.531C-1.44672 365.547 -1.02527 365.452 -0.633348 365.248C-0.22666 365.116 0.126637 364.888 0.423133 364.569C0.744621 364.27 0.970685 363.919 1.1036 363.51C1.30921 363.119 1.4035 362.698 1.38646 362.244C1.34784 361.954 1.30808 361.662 1.26945 361.372C1.11268 360.814 0.830956 360.331 0.423133 359.921C0.201612 359.75 -0.0187712 359.578 -0.241427 359.408C-0.753763 359.11 -1.30586 358.961 -1.89885 358.959C-2.35212 358.942 -2.77357 359.036 -3.16549 359.242C-3.57218 359.375 -3.92548 359.601 -4.22197 359.921C-4.54346 360.219 -4.76952 360.572 -4.90244 360.979C-5.10805 361.371 -5.20234 361.792 -5.1853 362.244C-5.14668 362.536 -5.10692 362.827 -5.06829 363.119C-4.91152 363.675 -4.63093 364.159 -4.22197 364.569C-4.00159 364.739 -3.78007 364.911 -3.55741 365.082C-3.04508 365.38 -2.49298 365.529 -1.89885 365.531Z" fill="white"/>
<path fill-rule="evenodd" clip-rule="evenodd" d="M4.75464 371.152C4.77055 371.267 4.78532 371.383 4.80236 371.5C4.94322 372.001 5.19768 372.438 5.56461 372.807C5.93381 373.174 6.37004 373.428 6.87101 373.569C7.13456 373.604 7.39698 373.639 7.6594 373.675C8.19332 373.674 8.69316 373.538 9.15437 373.27C9.49972 373.084 9.7769 372.831 9.98592 372.507C10.2483 372.221 10.4244 371.884 10.5164 371.5C10.6573 370.974 10.6573 370.45 10.5164 369.925C10.3756 369.423 10.1222 368.986 9.75418 368.617C9.67012 368.54 9.58605 368.465 9.50199 368.388C9.31 368.24 9.11916 368.092 8.92717 367.945C8.60114 367.736 8.24898 367.624 7.87069 367.607C7.6185 367.539 7.36744 367.539 7.11525 367.607C6.73696 367.624 6.3848 367.736 6.05877 367.945C5.86792 368.092 5.67594 368.24 5.48509 368.388C5.33741 368.58 5.1886 368.771 5.04092 368.963C4.83303 369.289 4.72056 369.641 4.70352 370.019C4.61946 370.396 4.63536 370.774 4.75464 371.152Z" fill="white"/>
<path fill-rule="evenodd" clip-rule="evenodd" d="M122.777 263.249C122.746 263.608 122.991 264.9 122.84 264.004C122.691 263.119 122.949 264.728 122.978 264.88C122.978 264.161 122.978 263.442 122.978 262.723C122.977 262.73 122.975 262.736 122.974 262.744C122.607 264.491 123.178 266.88 124.992 267.704C127.764 268.962 130.728 269.866 133.591 270.897C136.844 272.072 142.344 274.654 144.254 270.128C144.928 268.53 144.507 266.751 143.267 265.541C142.29 264.589 141.338 264.162 140.084 263.67C138.837 263.181 137.563 262.769 136.297 262.339C133.683 261.452 131.052 260.352 128.375 259.677C126.585 259.225 124.296 259.951 123.417 261.695C123.626 261.27 123.932 260.944 124.338 260.718C123.965 260.918 123.668 261.191 123.443 261.539C123.032 262.072 122.834 262.555 122.777 263.249Z" fill="#E85748" fill-opacity="0.2"/>
<path fill-rule="evenodd" clip-rule="evenodd" d="M97.8317 250.483C97.4977 250.915 97.3932 251.471 97.4068 252.009C97.5148 251.607 97.625 251.202 97.734 250.8C96.9763 251.856 97.3557 253.137 97.8851 254.171C98.1884 254.764 98.7621 255.203 99.2756 255.599C99.7913 255.999 99.7379 255.932 100.494 256.244C100.569 256.275 100.642 256.304 100.718 256.333C101.001 256.436 101.247 256.471 101.556 256.512C102.5 256.639 103.474 256.547 104.317 256.041C105.251 255.477 105.844 254.476 105.844 253.378C105.842 252.821 105.702 252.302 105.422 251.82C105.149 251.358 104.781 250.989 104.317 250.714C103.923 250.423 103.428 250.325 102.981 250.14C103.241 250.249 103.503 250.36 103.763 250.471C103.22 250.236 102.609 249.965 102.011 249.855C101.849 249.825 101.688 249.785 101.529 249.736C101.127 249.613 100.702 249.6 100.285 249.547C100.542 249.583 100.8 249.618 101.057 249.652C100.976 249.64 100.897 249.626 100.815 249.613C100.685 249.586 100.555 249.569 100.423 249.559C100.18 249.493 99.9356 249.493 99.6913 249.559C99.4426 249.559 99.212 249.622 98.9972 249.746C98.845 249.78 98.711 249.845 98.5928 249.94C98.9972 249.83 99.3994 249.721 99.8027 249.613C99.7754 249.61 99.7493 249.606 99.7232 249.603C99.9288 249.63 100.134 249.658 100.34 249.685C100.091 249.648 99.8015 249.566 99.5721 249.576C99.3346 249.586 99.0734 249.622 98.8496 249.701C98.628 249.753 98.4349 249.855 98.2691 250.005C98.0839 250.126 97.9374 250.286 97.8317 250.483Z" fill="#E85748" fill-opacity="0.2"/>
<path fill-rule="evenodd" clip-rule="evenodd" d="M324.9 217.522C328.253 218.706 332.218 221.468 331.072 224.834C330.38 226.866 328.102 227.822 326.052 228.458C316.834 231.316 307.116 232.524 297.479 232.078C292.718 231.857 287.975 231.234 283.322 230.206C279.217 229.299 273.973 228.403 270.906 225.271C266.728 221.004 268.048 213.895 274.003 212.687C280.188 211.432 286.9 212.917 293.16 212.816C304.015 212.641 314.618 213.893 324.9 217.522Z" fill="#E85748" fill-opacity="0.2"/>
</g>
<defs>
<clipPath id="clip0_299_207">
<rect width="599" height="399" fill="white" transform="translate(-119)"/>
</clipPath>
</defs>
</svg>
