<svg width="22" height="22" viewBox="0 0 22 22" fill="none" xmlns="http://www.w3.org/2000/svg">
<path opacity="0.35" d="M20.3922 17.0551C20.0535 16.7165 18.1006 14.7636 17.087 13.75C16.2386 15.0975 15.0975 16.2386 13.75 17.087C14.7636 18.1006 16.7165 20.0535 17.0551 20.3922C17.9767 21.3137 19.4706 21.3137 20.3922 20.3922C21.3137 19.4706 21.3137 17.9767 20.3922 17.0551Z" fill="#00255C"/>
<path d="M10.0833 18.3333C14.6397 18.3333 18.3333 14.6397 18.3333 10.0833C18.3333 5.52699 14.6397 1.83334 10.0833 1.83334C5.52696 1.83334 1.83331 5.52699 1.83331 10.0833C1.83331 14.6397 5.52696 18.3333 10.0833 18.3333Z" fill="#00255C"/>
<circle cx="6" cy="9" r="2" fill="#9DAABE"/>
</svg>
